<svg viewBox="0 0 1440 266" fill="none" xmlns="http://www.w3.org/2000/svg">
<path d="M0 95.7865L30 122.427C60 148.669 120 202.549 180 191.573C240 180.597 300 106.762 360 90.4983C420 74.8332 480 116.74 540 133.004C600 148.669 660 138.691 720 117.039C780 95.7865 840 63.8577 900 85.1103C960 106.762 1020 180.597 1080 223.502C1140 266.406 1200 276.384 1260 255.431C1320 234.477 1380 180.597 1410 154.356L1440 127.715V0H1410C1380 0 1320 0 1260 0C1200 0 1140 0 1080 0C1020 0 960 0 900 0C840 0 780 0 720 0C660 0 600 0 540 0C480 0 420 0 360 0C300 0 240 0 180 0C120 0 60 0 30 0H0V95.7865Z" fill="#0A1931"/>
</svg>
