<svg width="360" height="51" viewBox="0 0 360 51" fill="none" xmlns="http://www.w3.org/2000/svg">
<path d="M0 8L8.575 13.325C17.15 18.75 34.25 29.25 51.5 34.675C68.575 40 85.75 40 102.75 40C120 40 137.25 40 154.25 34.675C171.425 29.25 188.5 18.75 205.75 16C222.85 13.25 240 18.75 257.25 28C274.275 37.25 291.5 50.75 308.5 50.675C325.725 50.75 342.75 37.25 351.5 30.675L360 24V0H351.425C342.85 0 325.75 0 308.5 0C291.425 0 274.25 0 257.25 0C240 0 222.75 0 205.75 0C188.575 0 171.5 0 154.25 0C137.15 0 120 0 102.75 0C85.725 0 68.5 0 51.5 0C34.275 0 17.25 0 8.5 0H0V8Z" fill="#0A1931"/>
</svg>
