<svg width="526" height="380" viewBox="0 0 526 380" fill="none" xmlns="http://www.w3.org/2000/svg">
<path d="M402.902 80.2875C403.149 73.4357 398.084 67.5468 391.274 66.7687C383.92 65.9303 375.099 70.7278 373.206 80.1672C371.598 88.1955 370.484 102.387 370.559 101.737L402.705 103.698L402.902 80.2875Z" fill="white"/>
<path d="M403.349 104.501L376.543 102.102C377.39 114.889 377.191 122.589 376.591 129.879C375.919 138.104 382.403 145.151 390.656 145.166C398.273 145.176 404.527 139.152 404.803 131.541L403.349 104.501Z" fill="#F8A7A0"/>
<path d="M330.753 95.6573L388.3 121.591C394.16 124.878 396.088 132.394 392.529 138.092C388.931 143.858 381.214 145.388 375.69 141.433L326.4 105.485L330.753 95.6573Z" fill="#F8A7A0"/>
<path d="M325.088 109.133C331.417 111.272 338.284 107.875 340.421 101.546C342.56 95.2175 339.161 88.3532 332.835 86.2139C326.506 84.0766 319.642 87.4734 317.502 93.8023C315.365 100.129 318.76 106.993 325.088 109.133Z" fill="#F8A7A0"/>
<path d="M326.211 86.579C326.211 86.579 325.601 81.8458 331.751 83.4125C337.904 84.9771 343.405 89.7476 340.421 101.546L326.211 86.579Z" fill="#F8A7A0"/>
<path d="M344.378 68.246L332.558 61.9732C331.898 61.6246 331.11 61.9338 330.797 62.6683L317.296 94.1135C316.983 94.846 317.261 95.7216 317.919 96.0702L329.738 102.345C330.398 102.696 331.187 102.382 331.5 101.652L344.998 70.2048C345.314 69.4723 345.034 68.5946 344.378 68.246Z" fill="#3B3062"/>
<path d="M346.656 69.4558L334.835 63.1829C334.179 62.8322 333.39 63.1435 333.077 63.8759L319.577 95.3232C319.264 96.0557 319.54 96.9314 320.199 97.28L332.019 103.555C332.675 103.903 333.463 103.592 333.779 102.86L347.277 71.4146C347.592 70.68 347.314 69.8044 346.656 69.4558Z" fill="#2D2244"/>
<path d="M345.121 72.4542L334.737 66.9408L323.733 92.5696L334.121 98.0809L345.121 72.4542Z" fill="#E0DEDC"/>
<path d="M334.737 66.9408L334.121 98.0809L345.121 72.4542L334.737 66.9408Z" fill="white"/>
<path d="M337.481 98.9048L334.505 88.4964C334.291 87.7473 334.532 86.9422 335.121 86.4317C335.972 85.6951 337.265 85.8092 337.979 86.6807L339.703 89.0587L337.481 98.9048Z" fill="#F8A7A0"/>
<path d="M336.476 90.2518C336.476 90.2518 331.479 98.0332 334.953 104.912L337.972 98.857L336.476 90.2518Z" fill="#F8A7A0"/>
<path d="M353.709 362.734L372.484 362.655L376.35 337.274L357.577 337.356L353.709 362.734Z" fill="#F8A7A0"/>
<path d="M372.331 358.399C367.913 359.579 357.913 363.435 353.224 356.637L321.517 373.816L377.487 373.447L374.879 360.08C374.7 358.87 373.514 358.083 372.331 358.399Z" fill="#131112"/>
<path d="M321.554 378.247L377.523 377.877L377.487 373.026L321.517 373.395L321.554 378.247Z" fill="white"/>
<path d="M353.556 363.723C353.415 363.661 353.286 363.564 353.189 363.431C351.136 360.607 349.078 359.213 349.057 359.198C348.65 358.928 348.54 358.378 348.812 357.971C349.082 357.563 349.638 357.463 350.037 357.724C350.13 357.784 352.369 359.289 354.622 362.387C354.909 362.786 354.822 363.338 354.427 363.626C354.166 363.816 353.834 363.842 353.556 363.723Z" fill="white"/>
<path d="M349.244 365.991C349.103 365.931 348.976 365.834 348.877 365.701C346.826 362.874 344.766 361.484 344.745 361.47C344.338 361.198 344.228 360.648 344.5 360.241C344.77 359.835 345.328 359.729 345.725 359.994C345.82 360.055 348.057 361.559 350.31 364.659C350.599 365.053 350.51 365.609 350.115 365.898C349.854 366.084 349.522 366.112 349.244 365.991Z" fill="white"/>
<path d="M344.934 368.262C344.791 368.202 344.664 368.104 344.567 367.971C342.514 365.147 340.454 363.753 340.435 363.74C340.026 363.468 339.918 362.918 340.188 362.512C340.458 362.105 341.016 361.999 341.413 362.264C341.508 362.327 343.745 363.83 346 366.928C346.289 367.324 346.2 367.878 345.805 368.164C345.544 368.355 345.21 368.382 344.934 368.262Z" fill="white"/>
<path d="M383.988 128.906C383.988 128.906 376.412 145.747 363.812 220.913C351.213 296.083 349.522 346.596 349.522 346.596H388.277L422.071 136.76L413.435 128.578L383.988 128.906Z" fill="#F46B75"/>
<path d="M417.517 362.734L436.29 362.655L436.182 337.274L417.409 337.356L417.517 362.734Z" fill="#F8A7A0"/>
<path d="M436.138 357.977C431.72 359.158 421.721 363.014 417.031 356.216L385.324 373.395L441.295 373.026L438.686 359.661C438.506 358.449 437.319 357.664 436.138 357.977Z" fill="#131112"/>
<path d="M385.36 378.247L441.33 377.877L441.295 373.026L385.324 373.395L385.36 378.247Z" fill="white"/>
<path d="M417.361 363.723C417.222 363.661 417.094 363.564 416.996 363.431C414.944 360.607 412.883 359.213 412.863 359.198C412.458 358.928 412.348 358.378 412.62 357.971C412.89 357.563 413.444 357.463 413.844 357.724C413.938 357.784 416.176 359.289 418.43 362.387C418.716 362.786 418.629 363.338 418.233 363.626C417.971 363.816 417.639 363.842 417.361 363.723Z" fill="white"/>
<path d="M413.051 365.991C412.908 365.931 412.781 365.834 412.684 365.701C410.634 362.874 408.573 361.484 408.553 361.47C408.144 361.198 408.036 360.648 408.308 360.241C408.575 359.835 409.136 359.729 409.532 359.994C409.627 360.055 411.864 361.559 414.118 364.659C414.404 365.053 414.317 365.609 413.923 365.898C413.661 366.084 413.329 366.112 413.051 365.991Z" fill="white"/>
<path d="M408.741 368.262C408.598 368.202 408.471 368.104 408.374 367.971C406.322 365.147 404.261 363.753 404.24 363.74C403.834 363.468 403.726 362.918 403.995 362.512C404.265 362.105 404.823 361.999 405.22 362.264C405.315 362.327 407.552 363.83 409.806 366.928C410.094 367.324 410.007 367.878 409.613 368.164C409.351 368.355 409.017 368.382 408.741 368.262Z" fill="white"/>
<path d="M430.347 128.391C430.347 128.391 448.881 146.49 449.842 182.865C450.95 224.826 447.482 347.082 447.482 347.082L410.368 346.108L391.228 128.827L430.347 128.391Z" fill="#F46B75"/>
<path d="M402.705 257.014L395.984 189.372L386.387 177.986" stroke="#F14458" stroke-width="1.32919" stroke-miterlimit="10"/>
<path d="M433.173 63.49L410.088 62.1557L393.76 64.098L383.839 68.2854C382.243 68.9681 381.241 70.568 381.324 72.3006L381.596 78.0692C381.596 78.0692 374.063 103.349 383.061 109.174L383.988 128.906L431.449 128.379L438.634 80.6381C438.715 77.5193 436.286 63.7307 433.173 63.49Z" fill="white"/>
<path d="M378.251 102.102C378.251 102.102 376.543 92.4265 379.733 86.1267" stroke="#DAD8D6" stroke-width="1.01351" stroke-miterlimit="10"/>
<path d="M453.486 89.7186L429.739 102.629C435.244 114.2 439.711 120.35 441.851 127.347C444.26 135.239 450.356 141.505 458.03 138.474C465.114 135.672 468.704 127.764 466.152 120.589L453.486 89.7186Z" fill="#F8A7A0"/>
<path d="M447.042 71.4583C442.637 64.4903 435.97 62.2949 429.351 64.0856C422.208 66.0217 422.391 82.6344 424.534 89.7186C426.068 94.79 425.578 93.8874 429.739 102.63L456.104 89.2248L447.042 71.4583Z" fill="white"/>
<path d="M429.739 102.63L423.916 92.5614" stroke="#DAD8D6" stroke-width="1.01351" stroke-miterlimit="10"/>
<path d="M424.659 176.862L444.835 120.637C448.045 114.735 455.533 112.71 461.279 116.192C467.091 119.713 468.724 127.41 464.842 132.985L435.094 184.679L424.659 176.862Z" fill="#F8A7A0"/>
<path d="M438.757 185.94C440.813 179.582 437.325 172.766 430.969 170.711C424.611 168.657 417.793 172.145 415.739 178.499C413.682 184.855 417.17 191.676 423.528 193.73C429.884 195.784 436.703 192.296 438.757 185.94Z" fill="#F8A7A0"/>
<path d="M416.191 185.116C416.191 185.116 411.466 185.791 412.949 179.618C414.433 173.446 419.129 167.883 430.969 170.712L416.191 185.116Z" fill="#F8A7A0"/>
<path d="M388.825 4.74352C388.825 4.74352 373.588 3.38229 373.536 21.3916C373.495 34.8316 370.057 50.5002 365.384 58.4518C374.547 59.093 404.847 58.4082 394.171 58.6116C386.314 58.7631 407.947 63.6124 427.471 54.0734C427.471 54.0734 431.934 43.6858 431.098 30.5384C430.264 17.393 424.418 7.5303 417.482 3.07934C410.545 -1.37162 394.936 -1.14959 388.825 4.74352Z" fill="#C43B3A"/>
<path d="M382.807 3.36158C382.807 3.36158 414.126 -6.66712 423.816 8.82513C430.847 20.0656 424.105 41.3058 409.515 47.865C395.612 54.1129 397.538 7.81046 397.538 7.81046L382.807 3.36158Z" fill="#C43B3A"/>
<path d="M389.205 34.3648C389.697 38.158 387.022 41.6337 383.229 42.1275C379.436 42.6214 375.96 39.9467 375.464 36.1514C374.972 32.3582 377.647 28.8825 381.44 28.3907C385.233 27.8969 388.709 30.5716 389.205 34.3648Z" fill="#E97A7B"/>
<path d="M391.112 51.096L392.973 66.0757C393.614 71.338 397.2 73.7554 402.373 73.0831C406.791 72.5083 410.644 69.6904 410.621 65.2353L406.563 41.7998L391.112 51.096Z" fill="#F8A7A0"/>
<path d="M392.301 60.8569C392.301 60.8569 406.063 56.7172 408.781 44.3603L390.892 49.5624L392.301 60.8569Z" fill="#1A1C21"/>
<path d="M395.835 53.2518C386.953 53.81 379.195 47.2549 378.496 40.0172L376.945 22.9272C376.066 13.8551 382.544 5.72092 391.583 4.54437C400.835 3.34085 410.935 9.65519 412.138 18.9078L413.238 32.6674C414.084 43.3082 406.419 51.876 395.835 53.2518Z" fill="#F8A7A0"/>
<path d="M424.356 31.0447C424.85 34.8399 422.173 38.3136 418.38 38.8074C414.587 39.3013 411.113 36.6265 410.62 32.8334C410.126 29.0402 412.8 25.5645 416.594 25.0706C420.387 24.5747 423.862 27.2515 424.356 31.0447Z" fill="#F8A7A0"/>
<path d="M386.597 37.5126L386.487 39.4673L388.811 39.4548" stroke="#231D31" stroke-width="0.710641" stroke-miterlimit="10" stroke-linecap="round" stroke-linejoin="round"/>
<path d="M396.816 25.4484C396.816 25.4484 392.961 25.2886 392.992 26.903C392.992 26.903 393.042 27.9986 396.401 28.0712C399.763 28.1438 400.622 27.8513 400.885 26.8117C401.147 25.77 398.619 25.382 396.816 25.4484Z" fill="#7C2322"/>
<path d="M380.732 26.0646C380.732 26.0646 383.889 25.5915 384.212 27.0959C384.212 27.0959 384.407 28.1168 381.641 28.4675C378.875 28.8182 377.956 28.4945 377.657 27.6749C377.321 26.7494 379.226 26.1538 380.732 26.0646Z" fill="#7C2322"/>
<path d="M385.134 43.0157L395.256 42.8165C395.256 42.8165 395.175 45.8938 390.425 46.1698C385.783 46.4374 385.134 43.0157 385.134 43.0157Z" fill="white"/>
<path d="M393.627 32.4288C393.627 32.4288 395.303 30.0342 398.408 32.3479" stroke="#221D2E" stroke-width="0.869604" stroke-miterlimit="10" stroke-linecap="round" stroke-linejoin="round"/>
<path d="M380.12 33.1177C380.12 33.1177 381.714 30.5799 383.936 32.9496" stroke="#221D2E" stroke-width="0.830687" stroke-miterlimit="10" stroke-linecap="round" stroke-linejoin="round"/>
<path d="M382.808 3.36167C382.808 3.36167 368.585 7.51172 372.177 23.8713L417.486 21.0742L412.495 5.41594L382.808 3.36167Z" fill="#C43B3A"/>
<path d="M405.847 19.6091C405.847 19.6091 409.918 39.2514 405.538 61.7573C405.538 61.7573 413.713 60.5829 421.333 56.6507C421.333 56.6507 419.081 27.8927 415.216 18.6629C411.35 9.43313 406.009 15.1581 406.009 15.1581L405.847 19.6091Z" fill="#C43B3A"/>
<path d="M394.083 63.6519L388.813 66.1855C388.813 66.1855 381.237 78.9034 396.167 79.3869C414.176 79.9741 415.647 69.5699 418.519 62.6019L409.316 61.7242L394.083 63.6519Z" fill="#F8A7A0"/>
<path d="M34.371 85.3735H115.823C119.539 85.3735 122.55 82.3626 122.55 78.6462V24.6391C122.55 20.9227 119.539 17.9097 115.823 17.9097H34.371C30.6546 17.9097 27.6395 20.9227 27.6395 24.6391V78.6462C27.6395 82.3626 30.6546 85.3735 34.371 85.3735Z" fill="white"/>
<path d="M109.767 79.8538L102.482 93.9993C101.579 95.7507 99.1101 95.8399 98.0851 94.157L89.3533 79.8538H109.767Z" fill="white"/>
<path d="M97.1823 65.4136H51.8013V36.9959H97.1823V65.4136Z" fill="#3D6EBF"/>
<path d="M51.8013 36.9958L73.8298 51.3593L97.1823 36.9958" stroke="white" stroke-width="1.52737" stroke-miterlimit="10" stroke-linecap="round" stroke-linejoin="round"/>
<path d="M287.615 86.1267H246.749V65.4531C246.749 63.7391 248.14 62.3488 249.851 62.3488H287.615C289.327 62.3488 290.717 63.7391 290.717 65.4531V83.0245C290.717 84.7364 289.327 86.1267 287.615 86.1267Z" fill="#3D6EBF"/>
<path d="M246.751 81.2067L246.72 91.7126L255.691 81.2357L246.751 81.2067Z" fill="#3D6EBF"/>
<path d="M276.146 73.969C276.142 75.0605 277.026 75.9507 278.117 75.9527C279.213 75.9569 280.101 75.0729 280.103 73.9815C280.107 72.8879 279.226 71.9998 278.13 71.9957C277.038 71.9915 276.148 72.8754 276.146 73.969Z" fill="white"/>
<path d="M267.655 73.942C267.651 75.0355 268.535 75.9236 269.631 75.9257C270.722 75.9299 271.613 75.048 271.615 73.9544C271.619 72.8609 270.735 71.9707 269.641 71.9686C268.548 71.9644 267.66 72.8484 267.655 73.942Z" fill="white"/>
<path d="M259.166 73.9171C259.164 75.0085 260.046 75.8987 261.14 75.9008C262.231 75.905 263.121 75.021 263.125 73.9274C263.128 72.8339 262.246 71.9437 261.152 71.9416C260.059 71.9375 259.17 72.8214 259.166 73.9171Z" fill="white"/>
<path d="M162.229 219.348C160.749 220.618 141.184 231.189 129.344 246.413L152.987 268.191L192.116 258.807L194.421 219.348H162.229Z" fill="#1A1C21"/>
<path d="M156.008 361.408L151.829 339.282H166.097L167.813 361.408H156.008Z" fill="#F79493"/>
<path d="M167.813 359.306H156.008C156.008 359.306 147.787 364.483 145.656 373.62H178.85C178.85 373.62 173.397 361.844 167.813 359.306Z" fill="#131112"/>
<path d="M178.85 377.722H145.656V373.619H178.85V377.722Z" fill="white"/>
<path d="M155.564 364.9C155.564 364.9 162.552 361.221 167.813 364.9" stroke="white" stroke-width="1.27716" stroke-miterlimit="10" stroke-linecap="round" stroke-linejoin="round"/>
<path d="M160.467 254.278C165.125 286.947 173.156 348.297 173.156 348.297L145.516 348.81L126.422 260.461C124.311 250.891 130.559 241.479 140.2 239.707C149.872 237.928 159.079 244.539 160.467 254.278Z" fill="#1A1C21"/>
<path d="M221.687 219.348C223.169 220.618 242.732 231.189 254.572 246.413L230.931 268.191L191.8 258.807L189.495 219.348H221.687Z" fill="#1A1C21"/>
<path d="M226.289 361.408L230.469 339.282H216.201L214.482 361.408H226.289Z" fill="#F79493"/>
<path d="M214.482 359.306H226.289C226.289 359.306 234.51 364.483 236.644 373.62H203.447C203.447 373.62 208.9 361.844 214.482 359.306Z" fill="#131112"/>
<path d="M203.447 377.722H236.644V373.619H203.447V377.722Z" fill="white"/>
<path d="M226.735 364.9C226.735 364.9 219.745 361.221 214.482 364.9" stroke="white" stroke-width="1.27716" stroke-miterlimit="10" stroke-linecap="round" stroke-linejoin="round"/>
<path d="M223.448 254.278C218.79 286.947 208.772 348.297 208.772 348.297L236.413 348.81L257.494 260.461C259.604 250.891 253.356 241.479 243.715 239.707C234.044 237.928 224.839 244.539 223.448 254.278Z" fill="#1A1C21"/>
<path d="M188.391 128.872C188.391 128.872 163.397 128.872 144.996 146.969V197.681C144.996 197.681 233.054 199.021 233.054 197.681C233.054 196.34 233.075 143.616 233.075 143.616C233.075 143.616 215.064 128.872 188.391 128.872Z" fill="#3D6EBF"/>
<path d="M151.206 194.85H126.1C119.508 194.85 114.165 200.194 114.165 206.786C114.165 213.378 119.508 218.722 126.1 218.722H155.634L151.206 194.85Z" fill="#DE6F72"/>
<path d="M115.64 201.03L132.506 173.635L155.634 176.756L152.204 206.786L115.64 201.03Z" fill="#DE6F72"/>
<path d="M144.996 194.851H130.076" stroke="#4C2F2F" stroke-width="0.957871" stroke-miterlimit="10"/>
<path d="M148.718 143.616C148.718 143.616 135.133 154.586 120.811 178.736C120.811 178.736 123.901 192.711 150.579 194.851L148.718 143.616Z" fill="#3D6EBF"/>
<path d="M229.792 194.85H254.9C261.492 194.85 266.835 200.194 266.835 206.786C266.835 213.378 261.492 218.722 254.9 218.722H225.366L229.792 194.85Z" fill="#DE6F72"/>
<path d="M265.294 200.912L244.186 168.609L225.366 176.756L228.796 206.786L265.294 200.912Z" fill="#DE6F72"/>
<path d="M231.218 194.851H250.924" stroke="#4C2F2F" stroke-width="0.957871" stroke-miterlimit="10"/>
<path d="M233.075 143.616C233.075 143.616 246.662 154.586 260.984 178.736C260.984 178.736 257.894 192.711 231.218 194.851L233.075 143.616Z" fill="#3D6EBF"/>
<path d="M229.058 218.722H148.992C146.784 218.722 144.996 216.931 144.996 214.725V164.179C144.996 161.971 146.784 160.185 148.992 160.185H229.058C231.263 160.185 233.054 161.971 233.054 164.179V214.725C233.054 216.931 231.263 218.722 229.058 218.722Z" fill="#E3B3BF"/>
<path d="M194.421 189.451C194.421 192.433 192.003 194.851 189.026 194.851C186.044 194.851 183.626 192.433 183.626 189.451C183.626 186.474 186.044 184.056 189.026 184.056C192.003 184.056 194.421 186.474 194.421 189.451Z" fill="white"/>
<path d="M191.927 137.542H186.09C182.359 137.542 179.333 134.519 179.333 130.786V118.192H198.683V130.786C198.683 134.519 195.66 137.542 191.927 137.542Z" fill="#DE6F72"/>
<path d="M179.387 119.016C179.387 119.016 182.197 127.688 198.683 127.387V115.416C198.683 115.416 197.583 117.642 190.238 117.329C182.822 117.012 179.387 119.016 179.387 119.016Z" fill="#171517"/>
<path d="M212.872 85.7261C212.872 99.3363 202.115 110.367 188.85 110.367C175.582 110.367 164.829 99.3363 164.829 85.7261C164.829 72.1159 175.582 61.085 188.85 61.085C202.115 61.085 212.872 72.1159 212.872 85.7261Z" fill="#1A1C21"/>
<path d="M209.614 94.7152C209.614 94.7152 211.343 91.9658 214.91 93.3187C218.477 94.6716 216.865 103.335 211.513 104.441C211.513 104.441 209.594 104.858 208.089 103.544C208.089 103.544 209.407 97.1451 209.614 94.7152Z" fill="#DE6F72"/>
<path d="M214.204 96.3752C214.204 96.3752 211.214 95.3771 209.094 99.7783" stroke="#1F2036" stroke-width="0.614085" stroke-miterlimit="10" stroke-linecap="round" stroke-linejoin="round"/>
<path d="M168.649 94.7152C168.649 94.7152 166.918 91.9658 163.351 93.3187C159.782 94.6716 161.397 103.335 166.748 104.441C166.748 104.441 168.665 104.858 170.17 103.544C170.17 103.544 168.854 97.1451 168.649 94.7152Z" fill="#DE6F72"/>
<path d="M164.059 96.3752C164.059 96.3752 167.045 95.3771 169.168 99.7783" stroke="#1F2036" stroke-width="0.614085" stroke-miterlimit="10" stroke-linecap="round" stroke-linejoin="round"/>
<path d="M209.951 87.2493C209.953 92.8021 209.378 104.418 205.778 111.314C202.399 117.786 196.811 121.27 189.484 121.479C182.155 121.685 176.696 119.006 172.324 110.604C167.95 102.202 168.157 87.353 168.157 87.353C168.157 87.353 168.157 67.5198 188.827 67.5198C210.596 67.5198 209.951 87.2493 209.951 87.2493Z" fill="#DE6F72"/>
<path d="M168.649 94.7153C168.649 94.7153 176.499 76.7621 170.17 73.8259C170.17 73.8259 165.642 89.2787 168.649 94.7153Z" fill="#1A1C21"/>
<path d="M209.55 94.7153C209.55 94.7153 205.138 85.0373 209.031 78.0693C209.031 78.0693 212.555 89.2787 209.55 94.7153Z" fill="#1A1C21"/>
<path d="M181.788 99.0893C181.788 100.133 180.941 100.982 179.898 100.982C178.856 100.982 178.009 100.133 178.009 99.0893C178.009 98.0476 178.856 97.201 179.898 97.201C180.941 97.201 181.788 98.0476 181.788 99.0893Z" fill="#1A1C21"/>
<path d="M199.281 99.0893C199.281 100.133 198.436 100.982 197.392 100.982C196.349 100.982 195.504 100.133 195.504 99.0893C195.504 98.0476 196.349 97.201 197.392 97.201C198.436 97.201 199.281 98.0476 199.281 99.0893Z" fill="#1A1C21"/>
<path d="M187.698 103.206L187.7 105.756C187.702 106.4 188.273 106.881 188.883 106.752L190.238 106.468" stroke="#1F2036" stroke-width="0.614085" stroke-miterlimit="10" stroke-linecap="round" stroke-linejoin="round"/>
<path d="M185.515 93.2358L174.061 94.6116C174.061 94.6116 174.98 91.5737 179.659 91.0529C184.338 90.532 185.515 93.2358 185.515 93.2358Z" fill="#1A1C21"/>
<path d="M192.116 93.2358L203.568 94.6116C203.568 94.6116 202.646 91.5737 197.967 91.0529C193.29 90.532 192.116 93.2358 192.116 93.2358Z" fill="#1A1C21"/>
<path d="M182.921 109.676H194.485C194.485 109.676 194.678 113.98 188.688 113.727C182.697 113.474 182.921 109.676 182.921 109.676Z" fill="white"/>
<path d="M170.17 73.8258C170.17 73.8258 183.081 89.4674 210.403 84.2715C210.403 84.2715 212.81 70.1322 198.683 65.812C184.561 61.4917 173.54 71.703 170.17 73.8258Z" fill="#1A1C21"/>
<path d="M170.17 73.8259C170.17 73.8259 169.904 60.9876 181.788 59.064C193.672 57.1405 194.052 63.4984 202.464 64.0047C215.022 64.7579 220.751 77.1086 210.403 84.2716L192.935 73.8259H170.17Z" fill="#1A1C21"/>
<path d="M170.618 70.097C170.618 70.097 157.674 71.6865 165.673 92.2252L170.618 70.097Z" fill="#1A1C21"/>
<path d="M179.333 126.829L188.85 137.542L181.788 144.767L172.739 131.039L179.333 126.829Z" fill="white"/>
<path d="M198.683 127.387L188.85 137.542L195.913 144.767L206.017 131.024L198.683 127.387Z" fill="white"/>
<path d="M325.321 233.963H50.1248V218.722H325.321V233.963Z" fill="white"/>
<path d="M102.598 378.237H93.0323V233.963H102.598V378.237Z" fill="white"/>
<path d="M102.598 238.775H93.0323V233.963H102.598V238.775Z" fill="#E3E1DF"/>
<path d="M289.705 378.237H280.139V233.963H289.705V378.237Z" fill="white"/>
<path d="M289.705 238.775H280.139V233.963H289.705V238.775Z" fill="#E3E1DF"/>
<path d="M526 379.085H0.348633" stroke="#4C2F31" stroke-width="1.52879" stroke-miterlimit="10"/>
</svg>
