<svg width="116" height="92" viewBox="0 0 116 92" fill="none" xmlns="http://www.w3.org/2000/svg">
<path d="M112.141 14.2243C109.825 11.7985 106.627 10.365 102.989 10.365H84.6844V10.1445C84.6844 7.38783 83.5817 4.74144 81.7072 2.97719C79.8327 1.10266 77.2966 0 74.5399 0H41.4601C38.5932 0 36.057 1.10266 34.1825 2.97719C32.308 4.85171 31.2053 7.38783 31.2053 10.1445V10.365H13.0114C9.37262 10.365 6.1749 11.7985 3.85932 14.2243C1.54373 16.5399 0 19.8479 0 23.3764V78.289C0 81.9277 1.43346 85.1255 3.85932 87.4411C6.1749 89.7566 9.48289 91.3004 13.0114 91.3004H102.989C106.627 91.3004 109.825 89.8669 112.141 87.4411C114.456 85.1255 116 81.8175 116 78.289V23.3764C116 19.7376 114.567 16.5399 112.141 14.2243ZM110.266 78.289H110.156C110.156 80.2738 109.384 82.038 108.061 83.3612C106.738 84.6844 104.973 85.4563 102.989 85.4563H13.0114C11.0266 85.4563 9.26236 84.6844 7.93916 83.3612C6.61597 82.038 5.84411 80.2738 5.84411 78.289V23.3764C5.84411 21.3916 6.61597 19.6274 7.93916 18.3042C9.26236 16.981 11.0266 16.2091 13.0114 16.2091H34.2928C35.9468 16.2091 37.27 14.8859 37.27 13.2319V10.0342C37.27 8.82129 37.711 7.71863 38.4829 6.94677C39.2548 6.1749 40.3574 5.73384 41.5703 5.73384H74.5399C75.7529 5.73384 76.8555 6.1749 77.6274 6.94677C78.3992 7.71863 78.8403 8.82129 78.8403 10.0342V13.2319C78.8403 14.8859 80.1635 16.2091 81.8175 16.2091H103.099C105.084 16.2091 106.848 16.981 108.171 18.3042C109.494 19.6274 110.266 21.3916 110.266 23.3764V78.289Z" fill="black" fill-opacity="0.25"/>
<path d="M58 23.7073C50.5019 23.7073 43.6654 26.7947 38.8137 31.6464C33.8517 36.6084 30.8745 43.3346 30.8745 50.8327C30.8745 58.3308 33.962 65.1673 38.8137 70.0191C43.7757 74.981 50.5019 77.9582 58 77.9582C65.4981 77.9582 72.3346 74.8708 77.1863 70.0191C82.1483 65.0571 85.1255 58.3308 85.1255 50.8327C85.1255 43.3346 82.038 36.4981 77.1863 31.6464C72.3346 26.7947 65.4981 23.7073 58 23.7073ZM72.9962 65.9392C69.1369 69.6883 63.8441 72.1141 58 72.1141C52.1559 72.1141 46.8631 69.6883 43.0038 65.9392C39.1445 62.0799 36.8289 56.7871 36.8289 50.943C36.8289 45.0989 39.2548 39.8061 43.0038 35.9468C46.8631 32.0875 52.1559 29.7719 58 29.7719C63.8441 29.7719 69.1369 32.1978 72.9962 35.9468C76.8555 39.8061 79.1711 45.0989 79.1711 50.943C79.2814 56.7871 76.8555 62.0799 72.9962 65.9392Z" fill="black" fill-opacity="0.25"/>
<path d="M97.2548 34.403C100.239 34.403 102.658 31.984 102.658 29C102.658 26.0159 100.239 23.5969 97.2548 23.5969C94.2707 23.5969 91.8517 26.0159 91.8517 29C91.8517 31.984 94.2707 34.403 97.2548 34.403Z" fill="black" fill-opacity="0.25"/>
</svg>
