<svg width="661" height="385" viewBox="0 0 661 385" fill="none" xmlns="http://www.w3.org/2000/svg">
<path fill-rule="evenodd" clip-rule="evenodd" d="M69.3843 383.28H596.137C635.92 342.915 660.478 287.449 660.478 226.235C660.478 102.797 560.616 2.73122 437.429 2.73122C374.482 2.73122 317.624 28.8602 277.069 70.8848C259.365 65.6358 240.616 62.8179 221.208 62.8179C112.855 62.8179 25.0164 150.656 25.0164 259.01C25.0164 306.17 41.6559 349.443 69.3843 383.28Z" fill="#999999"/>
<path d="M467.424 285.096H399.168C395.19 285.096 391.968 281.874 391.968 277.896C391.968 273.92 395.19 270.696 399.168 270.696H467.424C471.403 270.696 474.627 273.92 474.627 277.896C474.627 281.874 471.403 285.096 467.424 285.096Z" fill="#B95079"/>
<path d="M514.391 285.096H433.84C428.345 285.096 424.396 279.719 425.951 274.358L464.419 141.76C465.45 138.201 468.661 135.76 472.306 135.76H552.857C558.352 135.76 562.302 141.135 560.746 146.499L522.278 279.097C521.248 282.655 518.037 285.096 514.391 285.096Z" fill="#B95079"/>
<path d="M503.307 285.096H433.144C427.649 285.096 423.7 279.719 425.257 274.358L463.723 141.76C464.756 138.201 467.967 135.76 471.61 135.76H541.775C547.27 135.76 551.219 141.135 549.662 146.499L511.196 279.097C510.163 282.655 506.952 285.096 503.307 285.096Z" fill="white"/>
<path d="M514.369 285.096H429.113C425.135 285.096 421.913 281.874 421.913 277.896C421.913 273.92 425.135 270.696 429.113 270.696H514.369C518.347 270.696 521.571 273.92 521.571 277.896C521.571 281.874 518.347 285.096 514.369 285.096Z" fill="#B95079"/>
<path d="M412.423 129.47C412.423 129.47 393.393 155.629 379.919 186.58C378.409 190.047 378.732 194.084 380.809 197.243C385.497 204.372 397.74 202.725 402.457 196.098C402.457 196.098 438.475 146.224 436.942 144.207C436.576 143.728 412.423 129.47 412.423 129.47Z" fill="#E3B3BF"/>
<path d="M390.111 177.51L342.919 158.525L338.832 183.227L386.347 201.295C388.065 201.949 389.94 202.138 391.731 201.739C397.869 200.371 402.222 194.318 401.095 187.678C400.161 182.165 395.645 177.986 390.111 177.51Z" fill="#E3B3BF"/>
<path d="M449.218 123.408L416.551 127.605C413.222 128.031 410.837 131.03 411.167 134.368L432.276 225.943L502.392 225.771L492.465 134.678C492.878 131.255 490.419 128.152 486.992 127.77L449.218 123.408Z" fill="#E3B3BF"/>
<path d="M420.418 172.446C420.418 171.354 414.561 149.085 414.561 149.085" stroke="#CA9DAD" stroke-width="1.12525" stroke-miterlimit="10"/>
<path d="M436.837 214.91H380.325V208.533H436.837C438.598 208.533 440.023 209.961 440.023 211.721C440.023 213.482 438.598 214.91 436.837 214.91Z" fill="#18191F"/>
<path d="M387.764 214.91H306.633C302.32 214.91 298.536 212.034 297.381 207.879L282.777 155.421C281.488 150.783 284.975 146.193 289.788 146.193H364.814C367.694 146.193 370.211 148.134 370.943 150.917L387.764 214.91Z" fill="#252C37"/>
<path d="M339.048 183.488C339.048 187.399 335.876 190.572 331.964 190.572C328.053 190.572 324.88 187.399 324.88 183.488C324.88 179.574 328.053 176.404 331.964 176.404C335.876 176.404 339.048 179.574 339.048 183.488Z" fill="white"/>
<path d="M464.569 145.421C464.569 145.421 482.376 180.681 502.474 209.097C504.728 212.284 510.047 213.868 513.945 213.698C522.743 213.319 526.471 203.843 523.149 196.13C523.149 196.13 494.986 131.055 491.089 129.99C490.486 129.827 464.569 145.421 464.569 145.421Z" fill="#E3B3BF"/>
<path d="M444.222 201.074L459.533 199.894L459.053 215.215L445.802 215.209L444.222 201.074Z" fill="#B94650"/>
<path d="M445.351 201.074C445.351 201.074 410.248 187.54 414.15 215.189H447.846L445.351 201.074Z" fill="#B94650"/>
<path d="M510.156 189.974L455.122 191.629L456.193 216.268L513.376 215.064C521.52 213.97 526.475 205.525 523.459 197.883C521.341 192.524 515.875 189.273 510.156 189.974Z" fill="#E3B3BF"/>
<path d="M475.176 159.025L489.734 190.587L455.122 191.629L455.09 199.894" stroke="#CA9DAD" stroke-width="1.12525" stroke-miterlimit="10"/>
<path d="M489.734 190.587L497.425 194.358" stroke="#CA9DAD" stroke-width="1.12525" stroke-miterlimit="10"/>
<path d="M426.659 86.6493C427.254 90.5584 424.668 94.2064 420.886 94.7998C417.102 95.3933 413.553 92.7048 412.957 88.798C412.363 84.8889 414.947 81.2387 418.731 80.6452C422.515 80.0517 426.065 82.7403 426.659 86.6493Z" fill="#1A1C21"/>
<path d="M436.406 105.717L438.031 124.881C438.589 131.612 442.901 134.861 449.312 134.252C454.785 133.734 460.575 130.568 459.832 124.656L455.869 94.6236L436.406 105.717Z" fill="#B94650"/>
<path d="M440.987 111.761C430.048 112.714 420.262 104.573 419.162 95.3711L416.959 76.1114C415.581 64.5806 423.305 54.0471 434.418 52.3045C445.795 50.5218 458.462 58.293 460.251 70.0425L461.784 85.0741C463.179 98.6019 454.002 109.722 440.987 111.761Z" fill="#B94650"/>
<path d="M429.967 88.2067L429.903 92.5018L432.618 92.379" stroke="#2C2024" stroke-width="0.770437" stroke-miterlimit="10" stroke-linecap="round" stroke-linejoin="round"/>
<path d="M440.976 76.5866C440.976 76.5866 436.462 76.5821 436.574 78.4697C436.574 78.4697 436.685 79.746 440.617 79.6723C444.55 79.5965 445.541 79.2149 445.797 77.9877C446.054 76.7583 443.078 76.4215 440.976 76.5866Z" fill="#1A1C21"/>
<path d="M422.578 77.6108C422.578 77.6108 426.244 76.908 426.694 78.6505C426.694 78.6505 426.971 79.8352 423.753 80.3774C420.538 80.9196 419.447 80.5827 419.061 79.6412C418.622 78.5747 420.819 77.787 422.578 77.6108Z" fill="#1A1C21"/>
<path d="M437.132 85.0763C437.132 85.0763 440.043 82.8206 442.948 85.0875" stroke="#2C2024" stroke-width="0.770437" stroke-miterlimit="10" stroke-linecap="round" stroke-linejoin="round"/>
<path d="M426.219 86.0424C426.219 86.0424 424.168 83.905 421.303 86.4865" stroke="#2C2024" stroke-width="0.770437" stroke-miterlimit="10" stroke-linecap="round" stroke-linejoin="round"/>
<path d="M449.191 60.4908C449.191 60.4908 444.046 67.0952 454.281 75.1096C454.281 75.1096 452.542 91.6584 450.309 95.8753C450.309 95.8753 429.57 91.6316 419.844 98.4077C419.844 98.4077 420.181 112.866 437.228 113.555C459.897 114.475 462.284 91.4308 462.284 91.4308L457.554 80.2971L465.289 81.348C465.289 81.348 481.01 57.5992 456.498 57.5992L449.191 60.4908Z" fill="#1A1C21"/>
<path d="M470.129 83.2758C470.725 87.1849 468.139 90.8351 464.354 91.4263C460.573 92.0198 457.023 89.3335 456.427 85.4244C455.833 81.5154 458.417 77.8652 462.201 77.2739C465.985 76.6804 469.535 79.369 470.129 83.2758Z" fill="#B94650"/>
<path d="M461.197 86.415C461.197 86.415 460.419 81.2855 465.289 81.3479" stroke="#2C2024" stroke-width="0.691921" stroke-miterlimit="10" stroke-linecap="round" stroke-linejoin="round"/>
<path d="M450.204 61.5105C450.204 61.5105 431.259 62.6639 419.809 61.7514C419.809 61.7514 408.512 57.5211 413.198 50.6624C416.904 45.2451 425.869 49.665 425.869 49.665C425.869 49.665 425.717 44.0781 429.655 42.5586C434.374 40.7357 448.151 39.2609 459.896 57.9583L450.204 61.5105Z" fill="#1A1C21"/>
<path d="M437.834 124.87L431.786 125.648C431.786 125.648 429.084 135.76 443.122 136.773C457.752 137.831 463.52 132.42 466.347 125.193L450.237 122.034L437.834 124.87Z" fill="#B94650"/>
<path d="M380.814 365.053L401.464 364.966L401.345 337.052L380.696 337.139L380.814 365.053Z" fill="#B94650"/>
<path d="M448.332 225.771L449.785 234.671C452.884 253.677 438.216 270.933 418.959 270.933H409.73V349.442L371.418 349.953L369.281 253.773C368.993 238.478 381.296 225.916 396.593 225.883L448.332 225.771Z" fill="#3D6EBF"/>
<path d="M401.62 360.995C396.762 362.291 385.633 365.723 380.475 358.246L345.603 377.14L407.164 376.736L404.424 362.842C404.228 361.51 402.921 360.647 401.62 360.995Z" fill="#1A1C21"/>
<path d="M345.641 382.477L407.202 382.071L407.164 376.736L345.603 377.14L345.641 382.477Z" fill="white"/>
<path d="M380.838 366.501C380.685 366.435 380.544 366.327 380.437 366.18C378.179 363.074 375.914 361.542 375.892 361.526C375.443 361.227 375.323 360.622 375.622 360.176C375.919 359.728 376.53 359.618 376.97 359.904C377.074 359.973 379.533 361.626 382.014 365.036C382.329 365.471 382.233 366.08 381.798 366.394C381.51 366.604 381.144 366.633 380.838 366.501Z" fill="white"/>
<path d="M376.097 368.998C375.943 368.934 375.803 368.824 375.696 368.677C373.438 365.571 371.171 364.038 371.151 364.023C370.702 363.726 370.582 363.121 370.881 362.673C371.177 362.227 371.791 362.111 372.226 362.401C372.333 362.47 374.792 364.123 377.271 367.532C377.588 367.968 377.489 368.577 377.057 368.893C376.769 369.101 376.403 369.13 376.097 368.998Z" fill="white"/>
<path d="M371.356 371.495C371.202 371.428 371.061 371.319 370.954 371.174C368.696 368.068 366.429 366.535 366.407 366.522C365.961 366.223 365.84 365.618 366.137 365.169C366.436 364.723 367.047 364.607 367.485 364.897C367.59 364.966 370.051 366.62 372.53 370.027C372.846 370.462 372.748 371.073 372.315 371.388C372.028 371.598 371.662 371.627 371.356 371.495Z" fill="white"/>
<path d="M434.876 365.053L455.523 364.966L455.405 337.052L434.755 337.139L434.876 365.053Z" fill="#B94650"/>
<path d="M455.356 359.824C450.499 361.12 439.499 365.361 434.34 357.882L399.467 376.781L461.028 376.375L458.158 361.671C457.962 360.341 456.657 359.476 455.356 359.824Z" fill="#1A1C21"/>
<path d="M399.507 382.115L461.066 381.712L461.028 376.375L399.467 376.781L399.507 382.115Z" fill="white"/>
<path d="M434.704 366.142C434.55 366.073 434.41 365.966 434.302 365.819C432.044 362.713 429.778 361.18 429.758 361.165C429.309 360.868 429.189 360.263 429.488 359.815C429.784 359.366 430.396 359.257 430.835 359.542C430.938 359.612 433.399 361.265 435.878 364.672C436.195 365.109 436.096 365.718 435.664 366.035C435.376 366.245 435.01 366.272 434.704 366.142Z" fill="white"/>
<path d="M429.963 368.639C429.809 368.572 429.668 368.463 429.559 368.316C427.303 365.21 425.036 363.677 425.014 363.661C424.568 363.365 424.447 362.76 424.746 362.311C425.043 361.865 425.657 361.749 426.094 362.039C426.196 362.108 428.657 363.762 431.136 367.171C431.451 367.606 431.355 368.215 430.922 368.532C430.632 368.742 430.268 368.768 429.963 368.639Z" fill="white"/>
<path d="M425.221 371.133C425.068 371.066 424.927 370.959 424.818 370.812C422.562 367.706 420.295 366.173 420.273 366.158C419.826 365.861 419.704 365.256 420.005 364.808C420.299 364.362 420.913 364.246 421.35 364.536C421.455 364.605 423.916 366.258 426.395 369.665C426.712 370.1 426.614 370.709 426.181 371.029C425.893 371.236 425.527 371.265 425.221 371.133Z" fill="white"/>
<path d="M502.392 225.771L503.844 234.671C506.943 253.677 492.276 270.933 473.018 270.933H463.79V349.442L425.478 349.953L423.341 253.773C423.053 238.478 435.356 225.916 450.653 225.883L502.392 225.771Z" fill="#3D6EBF"/>
<path d="M422.977 270.696V252.354C422.977 237.353 435.039 225.186 449.936 225.162L456.764 225.149" stroke="#4C2F2F" stroke-width="1.12525" stroke-miterlimit="10"/>
<path d="M334.802 384.19L279.839 220.871L235.608 382.207" stroke="#4C2F31" stroke-width="1.52879" stroke-miterlimit="10"/>
<path d="M565.863 384.19L510.899 220.871L466.668 382.207" stroke="#4C2F31" stroke-width="1.52879" stroke-miterlimit="10"/>
<path d="M589.933 226.001H199.411V214.936H589.933V226.001Z" fill="white"/>
<path d="M260.153 70.6762H352.534C355.111 70.6762 357.199 68.5879 357.199 66.0109V35.2315C357.199 32.6567 355.111 30.5683 352.534 30.5683H260.153C257.576 30.5683 255.488 32.6567 255.488 35.2315V66.0109C255.488 68.5879 257.576 70.6762 260.153 70.6762Z" fill="white"/>
<path d="M339.3 45.9367H271.704" stroke="#ECC3BD" stroke-width="1.30643" stroke-miterlimit="10" stroke-linecap="round" stroke-linejoin="round"/>
<path d="M295.074 56.5974H271.929" stroke="#ECC3BD" stroke-width="1.30643" stroke-miterlimit="10" stroke-linecap="round" stroke-linejoin="round"/>
<path d="M342.908 65.3392V83.4789L319.786 65.3392H342.908Z" fill="white"/>
<path d="M183.409 96.1207L197.595 152.2L225.344 200.199L215.775 208.281L176.441 159.025L160.731 113.633L183.409 96.1207Z" fill="#F79493"/>
<path d="M225.344 200.199L250.001 207.475C252.344 208.158 254.555 209.097 255.265 211.409C255.615 212.549 255.407 213.787 254.899 214.867L254.872 214.925C253.886 217.018 251.603 218.174 249.334 217.732L228.758 215.035L231.848 220.363C232.491 221.309 232.466 222.558 231.79 223.48C230.936 224.642 229.32 224.928 228.12 224.131L220.884 219.336C218.921 218.036 217.535 216.027 217.013 213.729L215.775 208.281L218.695 200.199H225.344Z" fill="#F79493"/>
<path d="M185.888 86.0782L195.404 120.548L165.321 134.274L174.768 106.19L185.888 86.0782Z" fill="#F46B75"/>
<path d="M149.321 69.2617C149.321 69.2617 120.418 58.6144 103.646 89.1193C86.8754 119.622 73.4471 185.848 73.4471 185.848L148.194 192.105L177.487 106.681C181.173 98.7915 190.361 88.5861 183.844 82.814C180.901 80.208 176.829 77.8049 171.2 76.0557C149.321 69.2617 149.321 69.2617 149.321 69.2617Z" fill="#F46B75"/>
<path d="M168.527 132.811L177.017 108.056" stroke="#F14458" stroke-width="1.35965" stroke-miterlimit="10"/>
<path d="M162.054 146.044L131.688 81.7496L108.059 116.483L141.257 161.981C144.254 166.087 149.107 168.418 154.182 168.188L217.49 165.339L225.703 154.319L162.054 146.044Z" fill="#F8A7A0"/>
<path d="M225.704 154.319L253.145 155.921L264.355 159.681C265.595 160.096 266.289 161.414 265.93 162.675C265.562 163.96 264.234 164.714 262.942 164.369L251.904 161.414L244.122 160.794L247.462 163.813C249.062 165.257 250.204 167.138 250.749 169.224L251.215 171.011C251.873 173.525 250.394 176.102 247.893 176.805L242.48 178.327C240.15 178.983 237.698 177.787 236.779 175.545L235.083 171.412L229.842 168.773C229.842 168.773 222.515 171.009 215.781 165.35C210.029 160.515 216.46 159.085 217.051 158.817C217.64 158.547 225.704 154.319 225.704 154.319Z" fill="#F8A7A0"/>
<path d="M134.729 77.0106L160.731 121.554L120.295 150.254L99.6298 106.07L134.729 77.0106Z" fill="#F46B75"/>
<path d="M109.01 127.969L121.272 149.549L128.423 144.395" stroke="#F14458" stroke-width="1.35965" stroke-miterlimit="10"/>
<path d="M152.668 127.277L136.076 96.1207" stroke="#F14458" stroke-width="1.35965" stroke-miterlimit="10"/>
<path d="M191.722 364.342L189.201 314.811L166.88 318.678L173.09 369.846L192.269 366.185L191.722 364.342Z" fill="#F8A7A0"/>
<path d="M170.303 360.033C170.303 360.033 186.247 366.66 193.748 355.946L232.477 376.172L165.343 376.321L170.303 360.033Z" fill="#131112"/>
<path d="M232.433 381.979L165.298 382.127L165.343 376.321L232.477 376.172L232.433 381.979Z" fill="white"/>
<path d="M193.34 364.937C193.512 364.862 193.668 364.743 193.789 364.583C196.296 361.18 198.815 359.491 198.84 359.473C199.338 359.145 199.471 358.485 199.139 358.001C198.809 357.517 198.13 357.403 197.642 357.717C197.528 357.793 194.793 359.618 192.037 363.351C191.687 363.829 191.794 364.489 192.276 364.83C192.597 365.056 193.001 365.082 193.34 364.937Z" fill="white"/>
<path d="M198.608 367.608C198.78 367.535 198.936 367.414 199.054 367.253C201.564 363.851 204.081 362.162 204.105 362.144C204.603 361.816 204.737 361.158 204.407 360.671C204.076 360.189 203.394 360.069 202.91 360.39C202.794 360.466 200.058 362.289 197.305 366.022C196.952 366.499 197.059 367.162 197.541 367.503C197.863 367.726 198.269 367.753 198.608 367.608Z" fill="white"/>
<path d="M203.871 370.279C204.045 370.203 204.199 370.085 204.32 369.924C206.83 366.524 209.349 364.833 209.373 364.817C209.869 364.487 210.003 363.829 209.672 363.344C209.342 362.86 208.662 362.74 208.175 363.061C208.059 363.137 205.326 364.96 202.568 368.693C202.218 369.17 202.325 369.83 202.807 370.172C203.126 370.397 203.534 370.424 203.871 370.279Z" fill="white"/>
<path d="M148.194 192.105L189.873 254.161C194.271 261.856 193.965 264.496 194.547 273.34L198.889 348.206L162.157 350.682L152.927 276.357L107.461 203.057L105.181 188.358L148.194 192.105Z" fill="white"/>
<path d="M91.0532 367.697L104.173 316.485L81.8517 320.351L71.9117 367.697L90.1491 369.846L91.0532 367.697Z" fill="#F8A7A0"/>
<path d="M71.0462 360.033C71.0462 360.033 86.9896 366.66 94.4914 355.946L133.22 376.172L66.0869 376.321L71.0462 360.033Z" fill="#131112"/>
<path d="M133.173 381.979L66.0415 382.127L66.0868 376.321L133.22 376.172L133.173 381.979Z" fill="white"/>
<path d="M94.0831 364.937C94.2571 364.862 94.4111 364.743 94.5316 364.583C97.0394 361.18 99.5562 359.491 99.583 359.473C100.078 359.145 100.214 358.485 99.882 358.001C99.5518 357.517 98.8735 357.403 98.3871 357.717C98.2688 357.793 95.5356 359.618 92.7801 363.351C92.4298 363.829 92.5369 364.489 93.0188 364.83C93.3379 365.056 93.744 365.082 94.0831 364.937Z" fill="white"/>
<path d="M99.3486 367.608C99.5204 367.535 99.6766 367.414 99.7971 367.253C102.305 363.851 104.824 362.162 104.848 362.144C105.346 361.816 105.48 361.158 105.147 360.671C104.819 360.189 104.137 360.069 103.65 360.39C103.537 360.466 100.801 362.289 98.0456 366.022C97.6953 366.499 97.8024 367.162 98.2843 367.503C98.6034 367.726 99.0095 367.753 99.3486 367.608Z" fill="white"/>
<path d="M104.614 370.279C104.788 370.203 104.944 370.085 105.063 369.924C107.573 366.524 110.09 364.833 110.114 364.817C110.612 364.487 110.746 363.829 110.415 363.344C110.085 362.86 109.405 362.74 108.918 363.061C108.802 363.137 106.067 364.96 103.311 368.693C102.959 369.17 103.068 369.83 103.55 370.172C103.871 370.397 104.275 370.424 104.614 370.279Z" fill="white"/>
<path d="M128.8 235.106L128.742 226.34L140.78 212.339" stroke="#DAD8D6" stroke-width="1.01351" stroke-miterlimit="10"/>
<path d="M75.5434 186.022C75.5434 186.022 65.7111 206.938 78.1501 235.481C78.6269 236.575 79.1055 237.556 79.5856 238.489L84.6382 281.832L67.2915 351.789L105.52 352.242L126.148 290.685C126.94 287.602 127.437 284.449 127.631 281.272L127.1 201.844L136.076 191.049L75.5434 186.022Z" fill="white"/>
<path d="M200.33 24.4972C200.33 24.4972 208.599 41.7287 194.092 41.2044L200.33 24.4972Z" fill="#1A1C21"/>
<path d="M184.156 45.4391C182.499 49.3995 184.261 53.9266 188.092 55.5487C191.921 57.173 196.37 55.2764 198.028 51.316C199.683 47.3534 197.923 42.8264 194.092 41.2043C190.263 39.5822 185.814 41.4787 184.156 45.4391Z" fill="#E97A7B"/>
<path d="M174.408 61.4748L168.393 79.05C166.294 85.2259 161.488 87.2608 155.624 85.1858C150.619 83.4142 145.936 79.0902 148.018 73.7264L158.772 46.5146L174.408 61.4748Z" fill="#F8A7A0"/>
<path d="M170.446 73.1752C170.446 73.1752 155.718 69.4803 156.791 51.8405C157.13 46.2848 175.06 59.6876 175.06 59.6876L170.446 73.1752Z" fill="#1A1C21"/>
<path d="M167.382 64.7903C177.412 68.2464 188.487 62.9138 191.678 54.5513L198.255 37.0208C202.254 26.5387 197.486 14.8583 187.481 10.619C177.238 6.2816 163.547 10.5923 159.116 21.1838L154.156 34.9056C149.676 47.2553 155.666 59.8259 167.382 64.7903Z" fill="#F8A7A0"/>
<path d="M183.168 45.573L182.284 49.3437L179.77 48.5896" stroke="#1A1C21" stroke-width="0.702817" stroke-miterlimit="10" stroke-linecap="round" stroke-linejoin="round"/>
<path d="M178.007 27.5181C178.007 27.5181 182.24 28.5735 181.691 30.3161C181.691 30.3161 181.287 31.4829 177.621 30.49C173.953 29.4994 173.114 28.9082 173.161 27.6989C173.208 26.4873 176.075 26.8689 178.007 27.5181Z" fill="#1A1C21"/>
<path d="M194.563 34.0333C194.563 34.0333 191.292 32.5138 190.46 34.0422C190.46 34.0422 189.924 35.0865 192.811 36.3493C195.699 37.6122 196.799 37.5519 197.381 36.762C198.044 35.8651 196.167 34.6112 194.563 34.0333Z" fill="#1A1C21"/>
<path d="M187.76 43.4801C187.394 44.4529 187.86 45.5328 188.802 45.8897C189.743 46.2467 190.803 45.7469 191.171 44.7741C191.539 43.8013 191.073 42.7237 190.129 42.3645C189.188 42.0075 188.128 42.5073 187.76 43.4801Z" fill="#1A1C21"/>
<path d="M172.813 37.7995C172.447 38.7723 172.913 39.8499 173.855 40.2091C174.797 40.5661 175.859 40.0663 176.224 39.0935C176.593 38.1207 176.126 37.0409 175.185 36.6839C174.243 36.3269 173.181 36.8267 172.813 37.7995Z" fill="#1A1C21"/>
<path d="M185.194 42.4761C183.482 46.8983 185.682 51.8716 190.105 53.5829C194.529 55.2943 199.502 53.0966 201.214 48.6721C202.925 44.2477 200.727 39.2765 196.303 37.5652C191.878 35.8538 186.905 38.0516 185.194 42.4761Z" stroke="white" stroke-width="0.653217" stroke-miterlimit="10"/>
<path d="M171.305 30.5906C166.965 32.5072 165.004 37.5787 166.923 41.9184C168.839 46.2558 173.911 48.217 178.251 46.3004C182.588 44.3815 184.549 39.31 182.63 34.9726C180.714 30.6351 175.642 28.6718 171.305 30.5906Z" stroke="white" stroke-width="0.653217" stroke-miterlimit="10"/>
<path d="M166.769 35.3453L159.205 32.4201" stroke="white" stroke-width="0.653217" stroke-miterlimit="10"/>
<path d="M182.142 43.0942L184.551 44.0246" stroke="white" stroke-width="0.653217" stroke-miterlimit="10"/>
<path d="M172.688 50.4928C172.688 50.4928 174.52 54.1632 181.468 54.1632" stroke="#1A1C21" stroke-width="0.702817" stroke-miterlimit="10" stroke-linecap="round" stroke-linejoin="round"/>
<path d="M154.176 8.89882C158.335 1.10079 165.392 4.34045 165.392 4.34045V4.35167C170.093 0.19495 179.355 -1.65021 188.023 1.82599C199.77 6.53605 208.128 17.0137 207.749 23.9817C207.37 30.952 198.242 27.3754 198.242 27.3754C198.242 27.3754 184.467 23.4618 173.975 18.7406C172.889 23.5399 169.859 30.7043 161.566 28.1607L154.774 41.4632C154.774 41.4632 148.787 19.0061 154.176 8.89882Z" fill="#1A1C21"/>
<path d="M145.05 31.3982C143.41 35.3206 145.155 39.8031 148.946 41.4074C152.739 43.0161 157.146 41.1396 158.785 37.215C160.428 33.2925 158.683 28.81 154.89 27.2036C151.097 25.5971 146.69 27.4757 145.05 31.3982Z" fill="#F8A7A0"/>
<path d="M153.549 37.0052C153.549 37.0052 155.704 31.8556 150.604 30.6485" stroke="#2C2024" stroke-width="0.744156" stroke-miterlimit="10" stroke-linecap="round" stroke-linejoin="round"/>
<path d="M143.419 67.789L161.501 72.006L173.962 77.0106C173.962 77.0106 170.432 89.2688 159.205 87.2406C138.515 83.4989 143.419 67.789 143.419 67.789Z" fill="#F8A7A0"/>
<path d="M652.634 383.396H0" stroke="#4C2F31" stroke-width="1.52879" stroke-miterlimit="10"/>
</svg>
