<svg width="116" height="105" viewBox="0 0 116 105" fill="none" xmlns="http://www.w3.org/2000/svg">
<path d="M58 75.2326C52.1443 75.2326 47.3803 70.4687 47.3803 64.6129C47.3803 58.7572 52.1443 53.9933 58 53.9933C63.8557 53.9933 68.6197 58.7572 68.6197 64.6129C68.6197 70.4687 63.8557 75.2326 58 75.2326ZM58 58.5248C54.6428 58.5248 51.9116 61.256 51.9116 64.6132C51.9116 67.9702 54.6428 70.7016 58 70.7016C61.357 70.7016 64.0884 67.9704 64.0884 64.6132C64.0884 61.256 61.357 58.5248 58 58.5248Z" fill="black" fill-opacity="0.25"/>
<path d="M71.7274 50.7637C70.1664 50.8067 68.9928 49.0583 69.634 47.6303C70.6039 45.3617 73.965 46.0324 73.993 48.498C74.0157 49.7147 72.9434 50.784 71.7274 50.7637Z" fill="black" fill-opacity="0.25"/>
<path d="M108.743 1.72437C105.533 1.72437 102.803 3.82007 101.849 6.71531H67.7406C66.243 2.79329 62.4415 0 57.9995 0C53.5578 0 49.7563 2.79306 48.2587 6.71531H14.1509C13.197 3.82007 10.467 1.72437 7.25657 1.72437C3.25525 1.72437 0 4.97962 0 8.98094C0 12.982 3.25525 16.2375 7.25657 16.2375C10.467 16.2375 13.197 14.1418 14.1509 11.2466H27.0609C25.5864 12.2174 24.1935 13.3361 22.9014 14.5949C17.8026 19.5628 14.8412 26.1546 14.5326 33.1984C11.1659 34.1713 8.6966 37.2813 8.6966 40.9575C8.6966 45.4099 12.3189 49.0324 16.7713 49.0324C21.2237 49.0324 24.8462 45.4101 24.8462 40.9575C24.8462 37.3026 22.4054 34.2073 19.0682 33.2154C19.7023 21.0515 29.9692 11.2466 42.2093 11.2466H47.6103C48.0319 16.6093 52.5306 20.844 57.9998 20.844C63.469 20.844 67.9676 16.6093 68.3895 11.2466H73.7903C86.0183 11.2466 96.2952 21.0547 96.9309 33.212C93.5878 34.2001 91.1413 37.2983 91.1413 40.9575C91.1413 45.4099 94.7636 49.0324 99.2163 49.0324C103.669 49.0324 107.291 45.4101 107.291 40.9575C107.291 37.2858 104.828 34.1788 101.467 33.2018C101.159 26.1458 98.1879 19.5431 93.0762 14.5734C91.7902 13.3232 90.4046 12.2117 88.9382 11.2463H101.849C102.803 14.1416 105.533 16.2373 108.743 16.2373C112.745 16.2375 116 12.982 116 8.98094C116 4.97962 112.745 1.72437 108.743 1.72437ZM7.25657 11.7063C5.75378 11.7063 4.53125 10.4837 4.53125 8.98094C4.53125 7.47815 5.75378 6.25562 7.25657 6.25562C8.75936 6.25562 9.98189 7.47815 9.98189 8.98094C9.98189 10.4837 8.75936 11.7063 7.25657 11.7063ZM20.315 40.9575C20.315 42.9114 18.7254 44.5012 16.7713 44.5012C14.8174 44.5012 13.2279 42.9116 13.2279 40.9575C13.2279 39.0034 14.8174 37.4139 16.7713 37.4139C18.7254 37.4139 20.315 39.0034 20.315 40.9575ZM57.9995 16.3127C54.7515 16.3127 52.1089 13.6701 52.1089 10.4221C52.1089 7.17387 54.7515 4.53148 57.9995 4.53148C61.2478 4.53148 63.8904 7.1741 63.8904 10.4221C63.8904 13.6701 61.2478 16.3127 57.9995 16.3127ZM102.76 40.9575C102.76 42.9114 101.17 44.5012 99.216 44.5012C97.2622 44.5012 95.6724 42.9116 95.6724 40.9575C95.6724 39.0034 97.2622 37.4139 99.216 37.4139C101.17 37.4139 102.76 39.0034 102.76 40.9575ZM108.743 11.7063C107.241 11.7063 106.018 10.4837 106.018 8.98094C106.018 7.47815 107.241 6.25562 108.743 6.25562C110.246 6.25562 111.469 7.47815 111.469 8.98094C111.469 10.4837 110.246 11.7063 108.743 11.7063Z" fill="black" fill-opacity="0.25"/>
<path d="M77.9341 55.1775C77.3369 54.0777 75.9616 53.6708 74.8617 54.2681C73.7622 54.8653 73.355 56.2407 73.9523 57.3405L76.6547 62.3151C77.9307 64.6639 77.957 67.4823 76.7256 69.8547L70.2677 82.2966H45.7323L39.2739 69.8549C38.0426 67.4825 38.0691 64.6639 39.3448 62.3153L55.7344 32.1445V46.1048C55.7344 47.3561 56.7487 48.3704 58 48.3704C59.2511 48.3704 60.2656 47.3561 60.2656 46.1048V32.1447L64.8383 40.5622C65.4355 41.6619 66.8108 42.0688 67.9107 41.4716C69.0102 40.8744 69.4174 39.4987 68.8202 38.3992L62.4626 26.6961C62.0661 25.9663 61.3024 25.5118 60.4718 25.5118H55.5286C54.6983 25.5118 53.9341 25.9661 53.5378 26.6961L35.3632 60.1523C33.3683 63.8251 33.3269 68.2327 35.2524 71.9422L40.6274 82.2968H39.9969C38.7456 82.2968 37.7313 83.3111 37.7313 84.5624C37.7313 85.8137 38.7456 86.828 39.9969 86.828H41.453L37.7616 101.603C37.5924 102.28 37.7446 102.997 38.174 103.547C38.6033 104.097 39.2621 104.418 39.9597 104.418H76.04C76.7376 104.418 77.3962 104.097 77.8258 103.547C78.2551 102.997 78.4072 102.28 78.2381 101.603L74.5468 86.828H76.0033C77.2544 86.828 78.269 85.8137 78.269 84.5624C78.269 83.3111 77.2544 82.2968 76.0033 82.2968H75.373L80.7478 71.9422C82.6736 68.2325 82.6321 63.8249 80.637 60.1519L77.9341 55.1775ZM73.1384 99.8869H42.8606L46.1234 86.8283H69.8757L73.1384 99.8869Z" fill="black" fill-opacity="0.25"/>
</svg>
