<svg width="116" height="115" viewBox="0 0 116 115" fill="none" xmlns="http://www.w3.org/2000/svg">
<path d="M26.9468 34.4616H24.2387V45.1501C24.2387 46.0789 23.4861 46.8316 22.5572 46.8316C21.6284 46.8316 20.8757 46.0789 20.8757 45.1501V34.4616H18.1678C17.239 34.4616 16.4863 33.7089 16.4863 32.7801C16.4863 31.8512 17.239 31.0986 18.1678 31.0986H20.8757V26.2132C20.8757 25.2743 20.1121 24.5107 19.1731 24.5107H15.1887C14.2598 24.5107 13.5072 23.758 13.5072 22.8292C13.5072 21.9003 14.2598 21.1477 15.1887 21.1477H19.1731C21.9662 21.1477 24.2387 23.4202 24.2387 26.2132V31.0986H26.9468C27.8757 31.0986 28.6283 31.8512 28.6283 32.7801C28.6283 33.7089 27.8755 34.4616 26.9468 34.4616ZM57.3952 9.13817C56.4666 9.13817 55.7137 8.38531 55.7137 7.45667C55.7137 6.52803 56.4666 5.77517 57.3952 5.77517C58.3239 5.77517 59.0767 6.52803 59.0767 7.45667C59.0767 8.38531 58.3241 9.13817 57.3952 9.13817ZM93.723 38.3546C90.9416 38.3546 88.6785 36.0915 88.6785 33.3101C88.6785 30.5287 90.9416 28.2656 93.723 28.2656C96.5045 28.2656 98.7675 30.5287 98.7675 33.3101C98.7675 36.0915 96.5045 38.3546 93.723 38.3546ZM93.723 31.6286C92.7957 31.6286 92.0415 32.3828 92.0415 33.3101C92.0415 34.2374 92.7957 34.9916 93.723 34.9916C94.6503 34.9916 95.4045 34.2374 95.4045 33.3101C95.4045 32.3828 94.6501 31.6286 93.723 31.6286ZM86.997 45.0806C84.2156 45.0806 81.9525 42.8175 81.9525 40.0361V26.5841C81.9525 23.8027 84.2156 21.5396 86.997 21.5396H100.449C103.23 21.5396 105.494 23.8027 105.494 26.5841V40.0361C105.494 42.8175 103.23 45.0806 100.449 45.0806H86.997ZM102.131 40.0361V26.5841C102.131 25.6568 101.376 24.9026 100.449 24.9026H86.997C86.0697 24.9026 85.3155 25.6568 85.3155 26.5841V40.0361C85.3155 40.9634 86.0697 41.7176 86.997 41.7176H100.449C101.376 41.7176 102.131 40.9631 102.131 40.0361ZM83.5322 69.9888C84.3486 69.3747 85.429 69.2715 86.3525 69.7188C86.5789 69.8285 86.8168 69.9114 87.0596 69.9659C87.356 70.032 87.6577 70.0567 87.9618 70.0381C88.9527 69.1274 90.2136 68.5824 91.5761 68.4875C93.1641 68.3752 94.703 68.8915 95.9056 69.9372C97.015 70.9022 97.7194 72.2281 97.9062 73.6647C99.8628 73.3493 101.655 72.359 102.977 70.8295C103.519 70.2015 104.36 69.9208 105.168 70.0959C105.972 70.2699 106.616 70.869 106.848 71.6586C107.414 73.5802 108.607 79.467 103.638 83.3919C104.587 83.6811 105.668 83.6594 106.221 84.6198C106.72 85.4857 106.453 86.5056 106.25 87.0367C105.853 88.0739 104.816 88.8204 103.169 89.2556C102.27 89.4933 101.096 89.6468 99.7717 89.6468C96.7011 89.6466 92.8316 88.82 89.7652 86.2982C86.7092 83.7847 85.4595 80.358 84.9555 77.758C84.171 76.8639 83.5495 75.8547 83.1049 74.7512C82.8269 74.0607 82.6222 73.3379 82.496 72.6023C82.3245 71.5996 82.7213 70.5981 83.5322 69.9888ZM87.7313 75.8088C87.9694 76.0547 88.1272 76.3672 88.1828 76.7051C88.5261 78.7837 89.4498 81.6846 91.9014 83.7008C94.8656 86.1383 99.0377 86.4807 101.437 86.1717C100.636 85.8395 99.869 85.427 99.1547 84.942C98.6496 84.5992 98.3698 84.0096 98.4241 83.4013C98.4783 82.7933 98.8581 82.2624 99.4161 82.0142C103.603 80.1531 104.263 76.9851 104.003 74.5003C101.826 76.2635 99.0861 77.2125 96.2307 77.1322C95.3193 77.1087 94.5927 76.363 94.5927 75.4514V74.4952C94.5927 74.4878 94.5927 74.4802 94.5929 74.4725C94.6032 73.7058 94.2773 72.9773 93.6986 72.4742C93.1742 72.018 92.5036 71.7942 91.8099 71.8418C91.1165 71.8902 90.4833 72.2057 90.0273 72.7301C89.7827 73.0112 89.4522 73.2029 89.0868 73.2758C88.0916 73.4737 87.0842 73.4482 86.1117 73.1959C86.4549 74.1735 87.0056 75.0597 87.7313 75.8088ZM21.0676 57.9934C21.1075 57.9934 21.147 57.995 21.1869 57.9952V54.3761C21.147 54.3764 21.1075 54.3777 21.0676 54.3777C9.45094 54.3777 0 44.927 0 33.3101C0 21.6461 9.52717 12.1779 21.1869 12.244V10.6495C21.1869 4.77748 25.9644 0 31.8364 0H82.954C88.8261 0 93.6035 4.77748 93.6035 10.6495V12.244C97.723 12.22 101.72 13.3861 105.163 15.6162C105.942 16.1211 106.165 17.1623 105.66 17.9416C105.155 18.7212 104.114 18.9438 103.335 18.4389C100.473 16.5852 97.1495 15.6054 93.723 15.6054C83.9607 15.6054 76.0184 23.5477 76.0184 33.3101C76.0184 43.0724 83.9607 51.0147 93.723 51.0147C103.485 51.0147 111.428 43.0724 111.428 33.3101C111.428 29.7709 110.387 26.3554 108.419 23.4332C107.901 22.6628 108.104 21.618 108.874 21.0992C109.645 20.5809 110.69 20.7845 111.208 21.5546C113.552 25.0342 114.791 29.0989 114.791 33.3101C114.791 44.9268 105.34 54.3777 93.723 54.3777C93.6831 54.3777 93.6437 54.3764 93.6038 54.3761V58.0367C94.0434 58.0091 94.4862 57.9936 94.9326 57.9936C106.549 57.9934 116 67.4443 116 79.061C116 90.6777 106.549 100.129 94.9324 100.129C94.486 100.129 94.0432 100.113 93.6035 100.086V104.141C93.6035 110.013 88.8261 114.79 82.954 114.79H31.8364C25.9644 114.79 21.1869 110.013 21.1869 104.141V100.128C21.147 100.128 21.1075 100.129 21.0676 100.129C9.45094 100.129 0 90.6782 0 79.0612C0 67.4443 9.45094 57.9934 21.0676 57.9934ZM21.0676 15.6054C11.3053 15.6054 3.36301 23.5477 3.36301 33.3101C3.36301 43.0724 11.3053 51.0147 21.0676 51.0147C30.83 51.0147 38.7723 43.0724 38.7723 33.3101C38.7723 23.5477 30.83 15.6054 21.0676 15.6054ZM24.5499 54.088V58.279C25.6996 58.4687 26.8235 58.7523 27.9129 59.1242V53.235C26.8291 53.6085 25.7052 53.8952 24.5499 54.088ZM86.8775 11.7703V13.3847C87.9615 13.0112 89.0852 12.7247 90.2405 12.5317V10.6493C90.2405 6.63139 86.9719 3.36278 82.954 3.36278H31.8364C27.8185 3.36278 24.5499 6.63139 24.5499 10.6493V12.5317C25.7052 12.7247 26.8289 13.0112 27.9129 13.3847V11.7703C27.9129 8.98885 30.176 6.72578 32.9574 6.72578H39.1341C41.0504 6.72578 42.6092 8.28464 42.6092 10.2009C42.6092 10.945 43.2148 11.5506 43.9591 11.5506H70.8315C71.5757 11.5506 72.1814 10.9452 72.1814 10.2009C72.1814 9.27157 72.5426 8.39876 73.2031 7.73849C73.8611 7.08562 74.7322 6.72578 75.6565 6.72578H81.8333C84.6147 6.72578 86.8775 8.98885 86.8775 11.7703ZM90.2405 54.088C89.0852 53.895 87.9615 53.6085 86.8775 53.235V59.5951C87.9566 59.1469 89.0803 58.7855 90.2405 58.5207V54.088ZM94.9324 96.7659C104.695 96.7659 112.637 88.8236 112.637 79.061C112.637 69.2987 104.695 61.3564 94.9324 61.3564C85.17 61.3564 77.2277 69.2987 77.2277 79.061C77.2277 89.3798 85.3731 96.7659 94.9324 96.7659ZM24.5499 104.141C24.5499 108.159 27.8185 111.427 31.8364 111.427H82.954C86.9719 111.427 90.2405 108.159 90.2405 104.141V99.6016C89.0803 99.3368 87.9566 98.9751 86.8775 98.527V103.02C86.8775 105.801 84.6145 108.064 81.833 108.064H32.9574C30.176 108.064 27.9129 105.801 27.9129 103.02V98.9864C26.8289 99.3599 25.7052 99.6464 24.5499 99.8394V104.141ZM21.0676 96.7659C30.83 96.7659 38.7723 88.8236 38.7723 79.061C38.7723 77.5439 38.5806 76.0379 38.2019 74.5849C37.9678 73.686 38.5066 72.7679 39.4052 72.5339C40.304 72.2994 41.2221 72.8386 41.4562 73.7372C41.9068 75.4669 42.135 77.258 42.135 79.061C42.135 86.9764 37.7466 93.8849 31.2757 97.4847V103.02C31.2757 103.947 32.0299 104.701 32.9572 104.701H81.8328C82.7601 104.701 83.5143 103.947 83.5143 103.02V96.7585C77.712 93.002 73.8645 86.4726 73.8645 79.061C73.8645 71.6494 77.712 65.12 83.5143 61.3636V51.7333C77.0434 48.1335 72.655 41.225 72.655 33.3099C72.655 25.3947 77.0434 18.4862 83.5143 14.8864V11.7703C83.5143 10.843 82.7601 10.0888 81.8328 10.0888H75.6561C75.6245 10.0888 75.596 10.1011 75.5763 10.1211C75.5474 10.1498 75.544 10.1805 75.544 10.2009C75.544 12.7994 73.4298 14.9136 70.8311 14.9136H43.9587C41.36 14.9136 39.2458 12.7994 39.2458 10.2009C39.2458 10.1392 39.1953 10.0888 39.1337 10.0888H32.957C32.0297 10.0888 31.2755 10.843 31.2755 11.7703V14.8864C37.7463 18.4862 42.1348 25.3947 42.1348 33.3099C42.1348 41.2299 37.7409 48.142 31.2636 51.74C31.2708 51.8034 31.2755 51.8678 31.2755 51.9333V60.6163C33.7551 61.9911 35.9637 63.8766 37.7609 66.2076C38.3279 66.943 38.1914 67.9988 37.456 68.566C36.7202 69.1332 35.6649 68.9969 35.0976 68.2611C31.7147 63.8712 26.6733 61.3564 21.0672 61.3564C11.3048 61.3564 3.36256 69.2987 3.36256 79.061C3.36301 88.8236 11.3053 96.7659 21.0676 96.7659ZM51.2333 56.839C52.0272 56.3576 53.0612 56.6101 53.5435 57.4037C53.8551 57.9169 54.2943 58.3566 54.7985 58.6828C55.2844 58.9971 55.9171 59.0061 56.4112 58.7061L58.9279 57.1784C59.4296 56.8737 59.704 56.2888 59.6473 55.6958C59.5913 55.1106 59.4002 54.5355 59.0951 54.0331C58.6131 53.2392 58.8657 52.2052 59.6594 51.723C60.4529 51.2409 61.4873 51.4934 61.9696 52.2873C62.5364 53.2206 62.891 54.2885 62.9957 55.3817L62.9989 55.4155C63.1764 57.267 62.2637 59.087 60.6737 60.0531L58.1571 61.5808C57.3831 62.051 56.5036 62.2852 55.6245 62.2852C54.6976 62.2852 53.7713 62.0247 52.9704 61.5057C52.0424 60.9044 51.2423 60.0944 50.6688 59.1494C50.1867 58.355 50.4396 57.321 51.2333 56.839ZM12.2196 77.258L24.0098 70.4475C25.5348 69.5498 27.5221 70.7167 27.5089 72.4675V86.0888C27.5246 87.8355 25.5227 89.0012 24.01 88.1088L12.2198 81.2985C10.6952 80.4345 10.7009 78.118 12.2196 77.258ZM24.1461 84.3037V74.2526L15.4458 79.2783L24.1461 84.3037ZM57.8035 42.1684C65.618 42.3734 72.1164 48.6424 72.5976 56.4406C72.7204 58.4265 72.4624 60.3827 71.8312 62.2557L73.6217 67.3493C73.9537 68.2936 73.7201 69.3197 73.0126 70.0275C72.305 70.7351 71.2786 70.9685 70.3345 70.6367L66.7834 69.3886C63.9972 71.5727 60.5136 72.7173 56.9735 72.6213C48.8344 72.4007 42.1904 65.5933 42.1633 57.447C42.1494 53.2926 43.778 49.4054 46.7491 46.5016C49.7195 43.5982 53.6475 42.057 57.8035 42.1684ZM57.0648 69.2594C59.8415 69.3301 62.5624 68.4335 64.7337 66.7219C65.327 66.254 66.0413 66.0108 66.7645 66.0108C67.1253 66.0108 67.4885 66.0713 67.8396 66.1948L69.9069 66.9215L68.6454 63.3327C68.405 62.6491 68.3999 61.899 68.6315 61.2205C69.1328 59.7498 69.3379 58.2113 69.2415 56.6477C68.8664 50.573 63.8038 45.6897 57.7158 45.5299C54.4746 45.442 51.4149 46.6442 49.1003 48.9063C46.7852 51.1692 45.5162 54.1984 45.527 57.4354C45.5478 63.7834 50.7239 69.0875 57.0648 69.2594Z" fill="black" fill-opacity="0.25"/>
</svg>
